<svg width="24" height="24" viewBox="0 0 24 24" fill="none" xmlns="http://www.w3.org/2000/svg">
<path fill-rule="evenodd" clip-rule="evenodd" d="M7.39402 3L11.4005 3C13.0574 3 14.4007 4.34315 14.4007 6C14.4007 6.66274 13.8634 7.2 13.2006 7.2C12.5378 7.2 12.0005 6.66274 12.0005 6C12.0005 5.66863 11.7319 5.4 11.4005 5.4H7.44028C6.74838 5.4 6.30163 5.40094 5.9616 5.42871C5.63559 5.45535 5.51472 5.50056 5.45538 5.53079C5.22958 5.64584 5.04599 5.82942 4.93094 6.05521C4.9007 6.11455 4.85549 6.23541 4.82885 6.56141C4.80107 6.90141 4.80014 7.34814 4.80014 8.04V10.8C4.80014 11.4151 4.80595 11.5474 4.8232 11.6341C4.91789 12.1101 5.29003 12.4823 5.76608 12.5769C5.85278 12.5942 5.9851 12.6 6.60023 12.6C7.26301 12.6 7.8003 13.1373 7.8003 13.8C7.8003 14.4627 7.26301 15 6.60023 15C6.56634 15 6.53278 15 6.49957 15.0001C6.0427 15.0004 5.64928 15.0007 5.29784 14.9308C3.86968 14.6468 2.75326 13.5304 2.46918 12.1023C2.39928 11.7509 2.39959 11.3575 2.39995 10.9007C2.39998 10.8674 2.40001 10.8339 2.40001 10.8L2.40001 7.99375C2.39998 7.36117 2.39997 6.81545 2.43669 6.36597C2.47546 5.89155 2.56104 5.41969 2.7924 4.96564C3.13757 4.28825 3.68833 3.73752 4.36575 3.39238C4.81983 3.16103 5.29172 3.07545 5.76616 3.03669C6.21567 2.99996 6.76141 2.99998 7.39402 3ZM14.5944 9H16.607C17.2396 8.99998 17.7854 8.99996 18.2349 9.03669C18.7093 9.07545 19.1812 9.16103 19.6353 9.39238C20.3127 9.73752 20.8635 10.2883 21.2087 10.9656C21.44 11.4197 21.5256 11.8916 21.5644 12.366C21.6011 12.8155 21.6011 13.3612 21.601 13.9938V16.0062C21.6011 16.6388 21.6011 17.1845 21.5644 17.634C21.5256 18.1085 21.44 18.5803 21.2087 19.0344C20.8635 19.7118 20.3127 20.2625 19.6353 20.6076C19.1812 20.839 18.7093 20.9246 18.2349 20.9633C17.7854 21 17.2396 21 16.607 21H14.5944C13.9618 21 13.4161 21 12.9665 20.9633C12.4921 20.9246 12.0202 20.839 11.5661 20.6076C10.8887 20.2625 10.338 19.7118 9.99279 19.0344C9.76143 18.5803 9.67585 18.1085 9.63708 17.634C9.60036 17.1846 9.60037 16.6388 9.6004 16.0063V13.9937C9.60037 13.3612 9.60036 12.8155 9.63708 12.366C9.67585 11.8916 9.76143 11.4197 9.99279 10.9656C10.338 10.2883 10.8887 9.73752 11.5661 9.39238C12.0202 9.16103 12.4921 9.07545 12.9665 9.03669C13.4161 8.99996 13.9618 8.99998 14.5944 9ZM13.162 11.4287C12.836 11.4553 12.7151 11.5006 12.6558 11.5308C12.43 11.6458 12.2464 11.8294 12.1313 12.0552C12.1011 12.1145 12.0559 12.2354 12.0292 12.5614C12.0015 12.9014 12.0005 13.3481 12.0005 14.04V15.96C12.0005 16.6519 12.0015 17.0986 12.0292 17.4386C12.0559 17.7646 12.1011 17.8855 12.1313 17.9448C12.2464 18.1706 12.43 18.3542 12.6558 18.4692C12.7151 18.4994 12.836 18.5447 13.162 18.5713C13.502 18.5991 13.9488 18.6 14.6407 18.6H16.5608C17.2527 18.6 17.6994 18.5991 18.0395 18.5713C18.3655 18.5447 18.4863 18.4994 18.5457 18.4692C18.7715 18.3542 18.9551 18.1706 19.0701 17.9448C19.1004 17.8855 19.1456 17.7646 19.1722 17.4386C19.2 17.0986 19.2009 16.6519 19.2009 15.96V14.04C19.2009 13.3481 19.2 12.9014 19.1722 12.5614C19.1456 12.2354 19.1004 12.1145 19.0701 12.0552C18.9551 11.8294 18.7715 11.6458 18.5457 11.5308C18.4863 11.5006 18.3655 11.4553 18.0395 11.4287C17.6994 11.4009 17.2527 11.4 16.5608 11.4H14.6407C13.9488 11.4 13.502 11.4009 13.162 11.4287Z" fill="currentColor"/>
</svg>
