<svg width="16" height="16" viewBox="0 0 16 16" fill="none" xmlns="http://www.w3.org/2000/svg">
<g>
<path d="M5.318 13.4697L6.094 12.6937C6.70865 12.8979 7.35231 13.0012 8 12.9997C9.999 12.9997 11.74 12.0437 13.225 10.4127C13.8892 9.6814 14.4605 8.87094 14.926 7.99966C14.4605 7.12837 13.8892 6.31791 13.225 5.58666L13.214 5.57466L13.921 4.86666C15.28 6.34266 15.966 7.84266 15.979 7.87266C15.993 7.90332 16 7.93599 16 7.97066V8.03066C16.0001 8.06403 15.9933 8.09706 15.98 8.12766C15.952 8.18766 13.291 13.9997 8 13.9997C7.07985 14.001 6.16848 13.8209 5.318 13.4697ZM2.04 11.0917C0.706999 9.62865 0.0339993 8.15766 0.0199993 8.12766C0.00652419 8.09676 -0.000290439 8.06336 -6.6874e-07 8.02965V7.97066C-6.6874e-07 7.93599 0.006666 7.90332 0.0199993 7.87266C0.0479993 7.81266 2.709 1.99966 8 1.99966C8.962 1.99966 9.837 2.19165 10.625 2.50665L9.845 3.28665C9.24874 3.09529 8.62621 2.99846 8 2.99966C6 2.99966 4.26 3.95566 2.775 5.58666C2.11077 6.31822 1.53945 7.12902 1.074 8.00066C1.53319 8.86 2.09532 9.66023 2.748 10.3837L2.04 11.0917ZM8.362 4.76965L7.255 5.87666C6.93706 5.98899 6.64828 6.17105 6.40984 6.40949C6.1714 6.64794 5.98934 6.93671 5.877 7.25466L4.77 8.36166C4.716 7.8768 4.77177 7.38601 4.93319 6.92564C5.09461 6.46527 5.35754 6.04712 5.7025 5.70216C6.04746 5.3572 6.46562 5.09427 6.92599 4.93285C7.38636 4.77143 7.87715 4.71565 8.362 4.76965ZM11.222 7.56666C11.24 7.70866 11.2493 7.85299 11.25 7.99966C11.2493 8.46282 11.1498 8.92051 10.9581 9.34213C10.7663 9.76374 10.4868 10.1396 10.1382 10.4445C9.78952 10.7494 9.3798 10.9764 8.9364 11.1102C8.49299 11.2441 8.02612 11.2817 7.567 11.2207L8.628 10.1607C8.99153 10.0541 9.32245 9.85785 9.59032 9.58998C9.85819 9.3221 10.0544 8.99119 10.161 8.62766L11.222 7.56666ZM1.854 14.8537C1.80751 14.9001 1.75232 14.937 1.69158 14.9622C1.63084 14.9873 1.56574 15.0003 1.5 15.0003C1.43426 15.0003 1.36916 14.9873 1.30842 14.9622C1.24768 14.937 1.19249 14.9001 1.146 14.8537C1.09951 14.8072 1.06264 14.752 1.03748 14.6912C1.01232 14.6305 0.999368 14.5654 0.999368 14.4997C0.999368 14.4339 1.01232 14.3688 1.03748 14.3081C1.06264 14.2473 1.09951 14.1921 1.146 14.1457L14.146 1.14566C14.1925 1.09917 14.2477 1.06229 14.3084 1.03713C14.3692 1.01197 14.4343 0.999023 14.5 0.999023C14.5657 0.999023 14.6308 1.01197 14.6916 1.03713C14.7523 1.06229 14.8075 1.09917 14.854 1.14566C14.9005 1.19214 14.9374 1.24733 14.9625 1.30807C14.9877 1.36881 15.0006 1.43391 15.0006 1.49966C15.0006 1.5654 14.9877 1.6305 14.9625 1.69124C14.9374 1.75198 14.9005 1.80717 14.854 1.85366L1.854 14.8537Z" fill="black"/>
</g>
</svg>
