<svg width="24" height="24" fill="none" xmlns="http://www.w3.org/2000/svg">
    <g fill="currentColor">
        <path d="M12 7.5a4.5 4.5 0 1 0 0 9 4.5 4.5 0 0 0 0-9ZM9.5 12a2.5 2.5 0 1 1 5 0 2.5 2.5 0 0 1-5 0Z"/>
        <path d="M12 2.5c-4.19 0-7.194 2.343-9.097 4.569a18.911 18.911 0 0 0-2.645 4.08 11.473 11.473 0 0 0-.17.376l-.01.023-.002.008-.002.002v.001l-.148.364.139.368v.001l.001.003.003.007.01.025.033.084.127.299a18.328 18.328 0 0 0 2.578 4.148C4.702 19.124 7.708 21.5 12 21.5s7.299-2.376 9.182-4.642a18.333 18.333 0 0 0 2.579-4.149 11.41 11.41 0 0 0 .16-.382l.01-.025.003-.007v-.003l.001-.001.139-.368-.148-.364-.002-.003-.003-.008-.01-.024a11.895 11.895 0 0 0-.17-.376 18.901 18.901 0 0 0-2.645-4.08C19.195 4.844 16.192 2.5 12.001 2.5Zm11 9.437c.936.353.935.354.935.354L23 11.937Zm.926-.378-.926.378.926-.378ZM1 11.937l-.926-.378.926.378Zm-.935.354L1 11.937l-.935.354Zm2.445.517c-.185-.35-.324-.645-.42-.858a16.914 16.914 0 0 1 2.332-3.582C6.129 6.376 8.626 4.5 12 4.5s5.872 1.875 7.577 3.869a16.912 16.912 0 0 1 2.332 3.581 16.328 16.328 0 0 1-2.265 3.629C17.97 17.594 15.475 19.5 12 19.5c-3.475 0-5.97-1.906-7.644-3.92a16.33 16.33 0 0 1-1.846-2.772Z"/>
    </g>
</svg>