<svg width="28" height="28" viewBox="0 0 28 28" fill="none" xmlns="http://www.w3.org/2000/svg">
<path d="M12.4687 11.3235C12.4687 12.1391 11.9104 12.8003 11.2217 12.8003C10.5329 12.8003 9.97461 12.1391 9.97461 11.3235C9.97461 10.5079 10.5329 9.84668 11.2217 9.84668C11.9104 9.84668 12.4687 10.5079 12.4687 11.3235Z" fill="currentColor"/>
<path d="M18.4547 11.3235C18.4547 12.1391 17.8963 12.8003 17.2076 12.8003C16.5189 12.8003 15.9605 12.1391 15.9605 11.3235C15.9605 10.5079 16.5189 9.84668 17.2076 9.84668C17.8963 9.84668 18.4547 10.5079 18.4547 11.3235Z" fill="currentColor"/>
<path fill-rule="evenodd" clip-rule="evenodd" d="M13.9683 4.92877C8.99234 4.92877 4.98102 8.90601 4.98102 13.7847C4.98102 18.6633 8.99234 22.6405 13.9683 22.6405C18.9442 22.6405 22.9555 18.6633 22.9555 13.7847C22.9555 8.90601 18.9442 4.92877 13.9683 4.92877ZM3.00244 13.7847C3.00244 7.78863 7.92442 2.9502 13.9683 2.9502C20.0121 2.9502 24.9341 7.78863 24.9341 13.7847C24.9341 19.7807 20.0121 24.6191 13.9683 24.6191C7.92442 24.6191 3.00244 19.7807 3.00244 13.7847ZM17.7907 15.3135C18.3057 15.4961 18.5751 16.0616 18.3924 16.5766L17.5087 16.2631C18.3924 16.5766 18.3922 16.5772 18.392 16.5777L18.3916 16.579L18.3907 16.5815L18.3886 16.5873L18.3835 16.601C18.3797 16.6111 18.375 16.6231 18.3695 16.6369C18.3583 16.6646 18.3435 16.6997 18.3247 16.7409C18.2871 16.8234 18.233 16.9316 18.1589 17.057C18.0112 17.3069 17.7808 17.6303 17.4392 17.9513C16.738 18.6104 15.6248 19.2043 13.9683 19.2043C12.3118 19.2043 11.1986 18.6104 10.4973 17.9514C10.1558 17.6304 9.92536 17.307 9.77762 17.057C9.70355 16.9317 9.64942 16.8235 9.61183 16.741C9.593 16.6997 9.57823 16.6647 9.5671 16.637C9.56153 16.6232 9.55686 16.6111 9.55305 16.601L9.54796 16.5873L9.54588 16.5816L9.54495 16.579L9.54452 16.5778C9.54431 16.5772 9.54411 16.5767 10.431 16.2621L9.5441 16.5766C9.36147 16.0617 9.63085 15.4962 10.1458 15.3136C10.6559 15.1327 11.2156 15.3953 11.4036 15.9008C11.4048 15.9038 11.4076 15.9104 11.4121 15.9201C11.4236 15.9453 11.4458 15.9909 11.4809 16.0502C11.5514 16.1695 11.6701 16.3383 11.8524 16.5096C12.1986 16.835 12.8314 17.2257 13.9683 17.2257C15.1052 17.2257 15.7379 16.835 16.0842 16.5096C16.2664 16.3383 16.3852 16.1694 16.4557 16.0502C16.4907 15.9909 16.513 15.9453 16.5245 15.92C16.5289 15.9103 16.5317 15.9037 16.5329 15.9007C16.7209 15.3952 17.2806 15.1326 17.7907 15.3135ZM11.4082 15.9134C11.4081 15.9132 11.4082 15.9135 11.4082 15.9134V15.9134Z" fill="currentColor"/>
</svg>
