<svg width="25" height="25" viewBox="0 0 25 25" fill="none" xmlns="http://www.w3.org/2000/svg">
<path d="M4.90323 3C2.19521 3 0 5.17765 0 7.864V17.136C0 19.8223 2.19521 22 4.90323 22H17.3145C19.5437 22 21.4254 20.5243 22.0211 18.504H16.5484C14.3482 18.504 12.5645 16.7346 12.5645 14.552V10.448C12.5645 8.26537 14.3482 6.496 16.5484 6.496H22.0211C21.4254 4.47569 19.5437 3 17.3145 3H4.90323Z" fill="#0B99FC"/>
<path fill-rule="evenodd" clip-rule="evenodd" d="M17.0081 7.864C15.3155 7.864 13.9436 9.22502 13.9436 10.904V14.096C13.9436 15.775 15.3155 17.136 17.0081 17.136H21.4516C23.1441 17.136 24.5161 15.775 24.5161 14.096V10.904C24.5161 9.22502 23.1441 7.864 21.4516 7.864H17.0081ZM17.668 14.2642C18.6762 14.2545 19.4856 13.436 19.476 12.4358C19.4663 11.4356 18.6411 10.6327 17.6329 10.6422C16.6246 10.6518 15.8152 11.4704 15.8248 12.4705C15.8345 13.4707 16.6597 14.2738 17.668 14.2642Z" fill="#0B99FC"/>
</svg>
