<svg width="48" height="48" viewBox="0 0 48 48" fill="none" xmlns="http://www.w3.org/2000/svg">
<circle cx="24" cy="24" r="24" fill="#F5B4B4"/>
<g clip-path="url(#clip0_252_9880)">
<path d="M23.9935 44.9991C12.3741 44.9888 2.98502 35.5744 3.00002 23.9513C3.01501 12.3694 12.4453 2.98035 24.0422 3.00003C35.6269 3.01971 45.001 12.4369 44.9897 24.0469C44.9794 35.6026 35.551 45.0113 23.9935 45V44.9991ZM25.0159 10.2684C24.418 10.4052 23.866 10.467 23.3646 10.6601C22.2766 11.0799 21.2102 11.556 20.1438 12.0292C19.1691 12.4622 18.158 12.6243 17.2152 12.0873C16.1882 11.5026 15.1957 11.4604 14.1387 11.8943C14.0674 11.9233 13.9887 11.9346 13.9128 11.9533C13.4452 12.0667 13.0535 11.8755 12.9335 11.4782C12.8023 11.0396 13.0197 10.6563 13.5005 10.5073C13.8425 10.4014 14.1855 10.2909 14.5369 10.2262C14.983 10.1437 15.0149 9.82229 14.9896 9.4868C14.9624 9.11851 14.6869 9.03042 14.3776 9.08852C13.2784 9.29656 12.1735 9.4868 11.0893 9.76044C10.7088 9.85696 10.318 10.1128 10.0453 10.4024C5.39249 15.3523 3.70099 21.1868 4.88176 27.8638C5.19101 29.6143 5.39624 29.8833 6.85534 30.559C7.47291 30.8448 7.59473 30.8045 7.97146 30.1729C7.72968 29.8973 7.47291 29.6275 7.2405 29.3369C6.42052 28.3108 6.03817 27.1291 6.04192 25.8218C6.04286 25.4282 6.19092 25.1171 6.61169 25.0168C6.95093 24.9362 7.248 25.0281 7.41387 25.3382C7.50477 25.5079 7.53757 25.7243 7.54226 25.9202C7.56756 27.1085 7.99957 28.1271 8.88984 28.9012C9.47367 29.4091 10.1315 29.8346 10.7753 30.2685C12.3741 31.3452 13.4724 32.7678 13.7844 34.7001C13.955 35.7553 14.3861 36.6915 14.8865 37.6108C14.939 37.7073 15.0233 37.7861 15.147 37.9407C15.222 37.5743 15.2398 37.2856 15.3447 37.0345C15.4403 36.8058 15.5875 36.5106 15.7871 36.4291C17.0241 35.9231 18.2714 35.4348 19.5384 35.0131C20.1962 34.7938 20.8644 34.8913 21.4257 35.387C21.8699 35.7787 22.3919 36.0983 22.7752 36.5406C23.3478 37.2004 23.8285 37.9397 24.3721 38.6773C24.9006 38.3399 25.4882 38.4561 26.1179 38.7897C27.0054 39.2601 27.771 39.083 28.2592 38.3549C28.3398 38.2349 28.3361 37.9501 28.248 37.847C27.9453 37.4927 27.5592 37.2097 27.2621 36.8527C27.0888 36.6446 26.8948 36.3138 26.9473 36.0955C27.0063 35.8509 27.3015 35.5473 27.5489 35.4826C29.783 34.8997 31.5129 33.5643 33.0348 31.9047C33.5109 31.3855 33.5278 30.975 33.1267 30.395C32.6384 29.6893 32.1342 28.994 31.6516 28.2836C31.0828 27.4477 31.1962 26.5246 31.9215 25.9436C32.6253 25.3804 33.5268 25.4797 34.2268 26.2004C34.4817 26.4628 34.732 26.7308 34.985 26.996C35.0412 26.9754 35.0974 26.9557 35.1537 26.9351C35.1405 26.7824 35.1771 26.6005 35.1068 26.4825C34.5558 25.5585 34.5923 24.581 34.791 23.5793C34.9044 23.0048 35.1649 22.5353 35.641 22.1736C35.7975 22.0546 35.9568 21.8446 35.9802 21.6591C36.1198 20.557 36.0083 19.4737 35.5379 18.4588C35.4451 18.2583 35.2015 18.0634 34.9869 17.9968C34.4593 17.8328 33.9682 17.6135 33.7142 17.1159C33.1745 16.0588 32.8839 14.239 34.3028 13.4415C34.4171 13.3777 34.5286 13.1734 34.5183 13.0451C34.4658 12.4088 34.6945 11.9224 35.194 11.54C35.2755 11.4772 35.3729 11.3451 35.3589 11.2617C35.2352 10.5111 34.9822 9.81292 34.4265 9.2647C34.1463 8.98919 33.8782 9.01917 33.6374 9.33592C32.6206 10.6723 31.154 11.2045 29.5909 11.4191C28.4242 11.5794 27.2247 11.4829 26.042 11.5503C25.0758 11.6056 24.7825 11.3048 25.0159 10.2684ZM5.76453 31.5589C6.08222 32.0462 6.44395 32.5101 6.71009 33.0245C11.2083 41.707 21.6656 45.7226 30.8167 42.2693C39.5694 38.9668 44.7367 30.0435 43.2139 20.8119C42.4248 16.0298 40.112 12.1042 36.4197 8.98169C36.3016 8.88235 36.1732 8.7952 36.0627 8.71274C36.3232 9.42401 36.639 10.0912 36.8096 10.7931C37.1132 12.0386 37.608 13.1753 38.3455 14.2249C38.7194 14.7572 39.0174 15.3466 39.3079 15.9305C39.5497 16.415 39.3951 16.8695 38.9912 17.04C38.5695 17.219 38.2021 17.0213 37.9388 16.5368C37.6277 15.9633 37.2987 15.3963 36.9408 14.85C36.595 14.3224 36.2773 13.8004 36.2548 13.1425C36.2473 12.912 36.1658 12.6843 36.118 12.4556C36.0186 12.5868 35.9971 12.7039 35.9905 12.823C35.9455 13.6354 35.8499 14.4095 34.9953 14.8378C34.8688 14.9006 34.8097 15.1742 34.7919 15.3569C34.7732 15.5528 34.8472 15.7562 34.8678 15.9576C34.9006 16.2734 35.0318 16.459 35.3776 16.519C36.1292 16.6483 36.6249 17.1047 36.9183 17.8066C37.3203 18.769 37.5349 19.7717 37.5443 20.8101C37.5536 21.8287 37.4768 22.8249 36.4797 23.4509C36.3785 23.5146 36.326 23.6786 36.2838 23.8079C35.9605 24.791 36.311 25.6503 36.7739 26.4965C38.1909 25.1817 38.3877 24.4911 37.787 22.9598C37.4843 22.1876 37.5846 21.4304 37.9313 20.692C38.1637 20.1962 38.5535 20.0041 38.9781 20.1906C39.3717 20.3631 39.5272 20.7819 39.3098 21.2646C39.0811 21.7725 39.1121 22.2354 39.307 22.7499C39.8027 24.0581 39.7465 25.3204 38.8403 26.4609C38.6079 26.7542 38.3699 27.0447 38.1131 27.3165C37.4824 27.9837 37.3034 28.0062 36.5284 27.5658C35.8762 28.3867 35.2211 28.6856 34.4836 28.3623C34.0881 28.189 33.7705 27.8301 33.4284 27.5424C33.2504 27.3924 33.0939 27.2162 32.928 27.0522C32.883 27.085 32.838 27.1188 32.793 27.1516C32.8558 27.2903 32.8999 27.443 32.9852 27.5667C33.4622 28.2611 33.9616 28.9405 34.4311 29.6406C35.1405 30.6977 35.0628 31.8803 34.2325 32.8287C33.2588 33.941 32.1342 34.8791 30.8888 35.6719C30.201 36.1095 29.4944 36.5097 28.6294 36.4328C28.5516 36.4263 28.4692 36.4628 28.2864 36.5013C28.6172 36.6193 28.874 36.6634 29.0745 36.7936C29.3351 36.9623 29.6199 37.1591 29.7708 37.4159C30.0735 37.9294 29.9629 38.4702 29.6687 38.9706C28.7793 40.484 27.2012 40.9329 25.49 40.1785C25.3279 40.1073 25.0983 40.0661 24.9428 40.1251C23.9972 40.4822 23.2147 40.2273 22.8352 39.2686C22.406 38.1834 21.6169 37.4468 20.7473 36.7468C20.3977 36.4647 20.05 36.3738 19.6274 36.5266C18.9545 36.7702 18.2789 37.0073 17.6004 37.235C17.0587 37.4168 16.6192 37.6745 16.5677 38.3268C16.5564 38.473 16.458 38.6163 16.3859 38.7541C15.8011 39.8749 14.7647 40.0061 14.0131 38.9949C13.2165 37.9238 12.5896 36.729 12.4003 35.4001C12.1107 33.375 11.0012 32.0274 9.20846 31.1062C8.2198 32.4445 7.08869 32.675 5.76359 31.5561L5.76453 31.5589ZM34.374 7.51509C34.3009 7.46261 34.2306 7.40545 34.1528 7.35953C29.0802 4.35792 23.6983 3.65508 18.0933 5.45623C15.9267 6.15251 13.8885 7.24895 11.793 8.16546C11.7809 8.17108 11.7837 8.2095 11.7715 8.27322C12.5568 8.06987 13.3234 7.87214 14.089 7.6744C15.3532 7.34735 16.4946 8.22918 16.5002 9.5374C16.5002 9.73607 16.5002 9.93474 16.5002 10.1259C16.8385 10.2834 17.174 10.4146 17.4842 10.5889C18.1992 10.9918 18.9011 10.9768 19.6283 10.6142C20.3256 10.2665 21.0321 9.93756 21.7481 9.63112C22.8146 9.1738 23.925 8.87298 25.0899 8.80926C25.5978 8.78115 26.0926 8.96295 26.2782 9.40527C26.5162 9.97223 26.8807 10.0107 27.369 9.94505C27.5227 9.92444 27.681 9.94505 27.8375 9.93849C28.5507 9.90757 29.2845 9.96661 29.9723 9.8176C30.8504 9.62643 31.7435 9.3228 32.3235 8.56936C32.853 7.88244 33.4659 7.4748 34.3749 7.51509H34.374Z" fill="white"/>
</g>
<defs>
<clipPath id="clip0_252_9880">
<rect width="41.9897" height="42" fill="white" transform="translate(3 3)"/>
</clipPath>
</defs>
</svg>
