<svg width="48" height="48" viewBox="0 0 48 48" fill="none" xmlns="http://www.w3.org/2000/svg">
    <circle cx="24" cy="24" r="24" fill="#B4CEF5"/>
    <g>
        <path d="M24.0268 3.00001C35.6383 3.0122 45.0225 12.4419 45 24.0731C44.9776 35.6256 35.537 45.0216 23.9724 45.001C12.3543 44.9794 2.97568 35.5554 3.00005 23.926C3.02442 12.3688 12.4499 2.98783 24.0268 3.00001ZM29.6689 34.1382C30.7976 35.3801 31.9046 36.6069 33.0286 37.8169C33.1232 37.9191 33.3642 37.9828 33.4935 37.9378C33.9697 37.7738 34.5303 37.6642 34.8715 37.338C35.8276 36.4242 36.7069 35.427 37.5834 34.4344C38.0605 33.8946 37.8815 33.5018 37.1597 33.3837C36.5438 33.2835 35.9261 33.1954 35.3139 33.0801C34.9596 33.0135 34.7262 32.7914 34.6915 32.4156C34.6596 32.0688 34.7965 31.7801 35.1311 31.6733C35.3402 31.6058 35.6017 31.5908 35.8108 31.6517C36.825 31.946 37.7268 31.8888 38.4186 30.9694C38.5198 30.8354 38.6745 30.7416 38.8029 30.6273C39.7994 29.7369 40.9702 29.2823 42.3022 29.2861C42.665 29.287 42.8159 29.1802 42.9031 28.824C43.6193 25.9129 43.7496 22.9756 43.0896 20.0551C41.6076 13.4963 37.7662 8.82595 31.63 6.05732C31.2738 5.89611 30.9026 5.76865 30.4489 5.58963C31.8306 10.1072 30.4001 13.8899 27.8513 17.4196C27.6423 17.7092 27.3217 17.8385 27.0321 17.6905C26.8061 17.5752 26.6308 17.2959 26.5155 17.0503C26.4284 16.8666 26.4865 16.6192 26.4546 16.4036C26.3571 15.7447 25.955 15.3539 25.3344 15.1608C24.7345 14.9743 24.1505 15.0305 23.7409 15.517C22.8456 16.5789 21.9907 17.6764 21.1405 18.7758C20.8949 19.0926 20.9793 19.43 21.2774 19.6934C21.5689 19.9502 21.882 20.0261 22.1923 19.7243C22.5841 19.3438 22.9684 18.9557 23.3556 18.5696C23.7502 18.1759 24.1777 18.1281 24.5086 18.4421C24.8442 18.7617 24.8404 19.1975 24.442 19.5912C23.8224 20.2042 23.2103 20.834 22.5326 21.3785C20.8837 22.7029 19.1476 23.8913 17.0619 24.4396C16.7095 24.5324 16.6082 24.7545 16.5838 25.0882C16.4882 26.4275 15.7505 27.1098 14.4016 27.1117C14.0182 27.1117 13.8167 27.2794 13.7857 27.6572C13.7745 27.7968 13.7754 27.9383 13.7651 28.078C13.7426 28.3704 13.6367 28.7387 14.0069 28.8456C14.4288 28.9674 14.8684 29.2692 15.3315 28.8906C15.8264 28.4857 16.3139 28.0583 16.8585 27.7303C17.2719 27.481 17.7584 27.2869 18.2337 27.2176C19.8741 26.9795 21.2352 27.3966 22.0132 29.019C22.2129 29.4351 22.5879 29.5185 23.0097 29.4089C23.6424 29.243 24.2695 29.0555 24.906 28.9028C25.1713 28.839 25.2819 28.7341 25.3185 28.4435C25.4816 27.1492 26.1537 26.1782 27.3742 25.7096C28.0604 25.4462 28.8169 25.2972 29.5518 25.2447C30.5454 25.1734 31.3356 25.6571 31.6993 26.5906C31.9253 27.1698 31.9909 27.8259 32.0406 28.4538C32.0743 28.8775 31.7753 29.1333 31.3328 29.1643C30.8969 29.1952 30.4545 29.1896 30.0242 29.257C28.9865 29.4201 27.9535 29.6169 26.9177 29.8006C26.9093 29.8794 26.9018 29.959 26.8933 30.0378C27.0817 30.1202 27.2636 30.2496 27.4595 30.274C27.7829 30.3152 28.1157 30.273 28.4419 30.2927C29.6043 30.3649 30.4629 31.2581 30.4845 32.3884C30.4976 33.0913 30.1901 33.6452 29.6633 34.1373L29.6689 34.1382ZM13.4689 29.8822C13.4745 29.8522 13.4801 29.8231 13.4867 29.7931C13.3695 29.7369 13.2542 29.6741 13.1342 29.6244C12.3009 29.2795 12.1715 29.063 12.2521 28.1427C12.2606 28.0489 12.2699 27.9561 12.2756 27.8624C12.3646 26.316 13.0039 25.6824 14.5488 25.6271C14.8731 25.6158 15.0456 25.464 15.0803 25.1556C15.1534 24.5052 15.2087 23.8529 15.2865 23.2024C15.3221 22.9025 15.2302 22.7375 14.9434 22.5913C14.1447 22.1827 13.7707 21.296 14.0585 20.4488C14.4869 19.1882 15.4084 18.4065 16.6588 18.0316C17.375 17.817 18.0181 18.1188 18.3274 18.8095C18.5346 19.2707 18.707 19.7833 18.7324 20.281C18.7755 21.1236 18.6911 21.9727 18.6583 22.8725C19.1776 21.7 20.1309 21.1236 21.3824 20.9558C21.1443 20.8593 20.9324 20.8106 20.7196 20.8087C20.2378 20.8049 19.9444 20.5631 19.7485 20.1404C19.3623 19.31 19.4363 18.5246 19.9894 17.8076C20.7899 16.7682 21.6045 15.74 22.4351 14.725C23.5618 13.3491 25.5444 13.1673 26.8989 14.321C27.092 14.4851 27.213 14.7615 27.3048 15.009C27.3986 15.263 27.4154 15.546 27.4661 15.816C27.5907 15.6023 27.6292 15.3886 27.6873 15.1805C27.7501 14.9574 27.797 14.7184 27.9141 14.5244C29.6577 11.6424 29.9183 8.6132 28.8562 5.44061C28.7653 5.16787 28.6228 5.03947 28.3519 4.98042C24.9257 4.22875 21.5295 4.33934 18.183 5.38812C10.4926 7.79779 5.1345 14.6819 4.56831 22.4892C4.30584 26.1116 4.91046 29.5682 6.61371 32.7642C7.61578 34.6434 8.87377 36.3858 10.0193 38.189C10.0877 38.2968 10.1702 38.3952 10.2461 38.4974C9.89178 37.6276 9.51495 36.7738 9.0425 35.9762C8.58692 35.2076 8.48381 34.4007 8.55037 33.5468C8.63567 32.4428 9.06874 31.4896 10.0324 30.9178C10.9885 30.3508 11.969 29.7585 13.168 29.8803C13.2673 29.8906 13.3686 29.8812 13.4689 29.8812V29.8822ZM23.8918 43.5042C25.8791 43.4864 27.6835 43.2427 29.4458 42.7281C31.2822 42.192 33.0042 41.4 34.6137 40.3597C34.9446 40.146 34.9399 39.8451 34.8274 39.5921C34.7665 39.4552 34.4581 39.4103 34.2528 39.3606C34.1384 39.3334 34.0035 39.37 33.8835 39.399C33.0379 39.6015 32.3602 39.3372 31.7865 38.6998C30.6373 37.4233 29.4655 36.1655 28.32 34.8843C28.0997 34.6387 27.8776 34.5469 27.5542 34.5506C26.164 34.5666 24.7729 34.5478 23.3828 34.56C22.0845 34.5712 20.909 34.1635 19.8872 33.4137C19.4785 33.1138 19.1767 32.5927 18.9751 32.11C18.7961 31.6798 18.5842 31.3893 18.1474 31.2487C17.7771 31.1297 17.4144 30.9853 17.046 30.8597C16.0889 30.5317 15.1018 30.4464 14.1485 30.7754C13.0761 31.1456 12.0328 31.6077 10.9979 32.0772C10.5095 32.2984 10.203 32.7361 10.1158 33.2778C9.9424 34.3557 10.0539 35.3923 10.6267 36.3492C11.2838 37.4467 11.9353 38.548 12.6065 39.6361C12.7321 39.8405 12.9149 40.0326 13.1136 40.1666C16.4179 42.3832 20.07 43.4714 23.8918 43.5032V43.5042ZM16.6729 29.3601C17.3469 29.5298 18.0846 29.6826 18.7998 29.9056C19.6163 30.1596 20.1253 30.737 20.3662 31.5655C20.4328 31.7932 20.5518 32.0922 20.7346 32.1831C21.3702 32.498 22.032 32.9273 22.705 32.9676C24.5873 33.081 26.4809 33.0257 28.3697 33.0276C28.7597 33.0276 28.9818 32.8073 28.98 32.4118C28.9781 32.0107 28.7278 31.8223 28.3557 31.7942C28.0763 31.7726 27.7932 31.7811 27.5129 31.7886C26.689 31.8101 26.06 31.4764 25.656 30.7566C25.4807 30.4445 25.2548 30.3649 24.9182 30.4614C24.3792 30.6161 23.8374 30.7613 23.29 30.8832C22.3366 31.095 21.5267 30.8457 20.9165 30.064C20.6765 29.7575 20.4993 29.3967 20.235 29.1155C20.0588 28.9281 19.7916 28.7669 19.5413 28.7181C18.4624 28.5101 17.5297 28.9834 16.672 29.3611L16.6729 29.3601ZM36.3216 39.1113C39.0317 36.8572 41.0142 34.1307 42.2629 30.8176C40.734 30.7613 39.8284 31.7136 38.8751 32.5758C39.5744 33.8533 39.5463 34.441 38.6136 35.56C37.768 36.5741 36.8672 37.5423 35.9814 38.5405C36.0657 38.682 36.1763 38.8685 36.3207 39.1113H36.3216ZM16.9804 19.4909C16.372 19.714 15.9333 20.0964 15.6099 20.6062C15.3474 21.0205 15.4412 21.2258 15.9033 21.341C16.4498 21.4769 16.7348 21.8143 16.7798 22.3917C16.7929 22.5566 16.7816 22.7235 16.7816 22.9053C17.3609 22.7469 17.4678 20.4797 16.9804 19.4928V19.4909ZM30.4554 27.6422C30.3842 27.0676 30.1517 26.7424 29.7036 26.7415C28.904 26.7415 28.1072 26.8521 27.4689 27.3863C27.212 27.6009 27.0536 27.9336 26.8183 28.2579C28.1119 28.0386 29.2687 27.8427 30.4554 27.6422Z" fill="white"/>
        <path d="M35.4895 29.9599C34.5352 29.9983 33.9775 29.6431 33.7075 28.734C33.3053 27.3787 32.9229 26.0169 32.5892 24.6438C32.5076 24.3073 32.5807 23.8912 32.7035 23.5566C32.9604 22.8565 33.7431 22.669 34.3543 23.1751C34.7564 23.5079 35.1342 23.91 35.4051 24.3533C36.0529 25.4133 36.6743 26.4949 37.2274 27.6065C37.8161 28.7893 37.309 29.6778 36.0013 29.8999C35.8326 29.929 35.661 29.9402 35.4904 29.959L35.4895 29.9599ZM33.8228 24.088C33.8022 24.0955 33.7825 24.103 33.7619 24.1115C33.7825 24.1799 33.8003 24.2483 33.8228 24.3158C34.224 25.5267 34.6252 26.7386 35.0283 27.9495C35.2223 28.5315 35.2889 28.5596 35.9235 28.3047C35.2223 26.897 34.5221 25.493 33.8228 24.088Z" fill="white"/>
        <path d="M16.9473 13.3027C17.925 13.3027 18.6571 14.0459 18.6524 15.031C18.6477 16.0413 17.73 16.9898 16.7176 16.9195C15.4446 16.8324 15.0537 16.2831 15.0069 14.9288C14.9731 13.9756 15.8027 13.3008 16.9482 13.3018L16.9473 13.3027ZM17.3128 15.016C17.0729 14.9063 16.9491 14.7976 16.8648 14.8229C16.7326 14.8623 16.5789 14.9729 16.532 15.091C16.5057 15.1584 16.7195 15.4078 16.7476 15.3956C16.9116 15.3253 17.0523 15.2016 17.3128 15.016Z" fill="white"/>
    </g>
</svg>
