<svg width="48" height="48" viewBox="0 0 48 48" fill="none" xmlns="http://www.w3.org/2000/svg">
<circle cx="24" cy="24" r="24" fill="#B4E4F5"/>
<g clip-path="url(#clip0_252_9882)">
<path d="M23.9949 45C12.3743 44.9869 2.98408 35.5723 3.00002 23.948C3.01596 12.3677 12.4502 2.97847 24.0511 3.00004C35.6379 3.0216 45.0122 12.4409 45 24.0502C44.9878 35.6061 35.5564 45.0122 23.9949 45ZM15.86 13.0587C15.0181 12.9453 14.1837 12.8534 13.3568 12.7146C12.5937 12.5871 11.8521 12.6265 11.0824 12.7268C10.308 12.8281 9.50267 12.769 8.72077 12.6893C8.33358 12.6499 8.10295 12.6743 7.877 13.0184C4.67256 17.8991 3.68066 23.1914 5.12819 28.8456C7.74575 39.0683 17.8935 45.2738 28.1875 43.0378C38.9099 40.709 45.6385 29.8075 42.9037 19.1966C40.5224 9.95925 31.9694 3.84943 22.4498 4.57695C19.1132 4.83195 16.0625 5.90448 13.2593 7.71858C12.9752 7.90233 12.8365 8.14609 12.9574 8.41047C13.0371 8.58485 13.309 8.74329 13.5162 8.77517C14.405 8.90923 14.9553 9.39487 15.1962 10.248C15.2853 10.563 15.3397 10.8902 15.4587 11.1921C15.5122 11.329 15.6659 11.4696 15.8056 11.5221C16.2163 11.6759 16.5359 11.538 16.8894 11.2502C18.1438 10.2264 19.657 9.89832 21.2301 9.70612C23.0395 9.48581 24.6249 9.81019 25.9571 11.1574C26.3077 11.5127 26.8421 11.7865 27.3343 11.883C28.9543 12.2027 30.1488 13.0306 31.0141 14.4415C31.2982 14.9047 31.7997 15.29 32.2844 15.5609C33.4535 16.2135 34.6395 16.8575 35.877 17.3591C37.8674 18.1654 38.1786 21.0811 36.808 22.3158C36.2379 22.8295 35.9154 23.5027 35.7636 24.263C35.3914 26.1249 34.3048 27.4037 32.5451 28.0975C31.7407 28.4144 31.2428 28.9647 31.0178 29.7963C30.7947 30.6185 30.3344 31.2897 29.6537 31.8138C28.1453 32.9763 26.6518 34.1595 25.1358 35.3136C24.458 35.8292 24.0024 36.4517 23.8758 37.3114C23.7867 37.9124 23.6574 38.5077 23.5233 39.1002C23.2242 40.4287 21.7308 40.9565 20.6582 40.1212C19.9148 39.5418 19.3973 38.7946 19.2463 37.873C19.0823 36.8755 18.9379 35.8564 18.9576 34.8504C19.0091 32.1644 19.1301 29.4794 19.2726 26.7971C19.326 25.7987 19.0279 25.0487 18.1297 24.5874C16.9475 23.9808 16.0841 23.0761 15.4897 21.893C15.259 21.4336 14.9694 21.0051 14.7172 20.5561C14.3431 19.8923 14.135 19.1816 14.1434 18.4129C14.1481 17.9751 14.1584 17.5372 14.1406 17.1004C14.0975 16.0306 14.4715 15.1512 15.2844 14.4509C15.6959 14.0965 15.9031 13.6456 15.8581 13.0568L15.86 13.0587ZM20.602 30.8453C20.6085 30.8453 20.6151 30.8453 20.6217 30.8453C20.6057 31.1107 20.5823 31.375 20.5738 31.6404C20.5129 33.6026 20.2626 35.5751 20.7295 37.5158C20.8401 37.9752 21.1382 38.4158 21.4392 38.7946C21.7383 39.1715 21.9961 39.074 22.0973 38.6061C22.1826 38.2105 22.2642 37.8121 22.3176 37.4108C22.5089 35.9708 23.1914 34.8551 24.3736 33.9917C25.7846 32.9613 27.1327 31.8457 28.5278 30.7928C29.0894 30.3691 29.4578 29.8563 29.6444 29.1766C29.8516 28.4209 30.2613 27.7675 30.9072 27.3128C31.2982 27.0381 31.7388 26.8253 32.1766 26.6274C33.2744 26.1315 34.001 25.329 34.241 24.1402C34.4698 23.0058 34.9854 22.043 35.7701 21.1945C36.478 20.4295 36.2417 19.2585 35.322 18.7907C34.2392 18.2394 33.1657 17.6657 32.0604 17.1641C30.9569 16.6635 30.0737 15.9491 29.4672 14.8944C29.0209 14.119 28.3496 13.655 27.4665 13.4946C26.3274 13.2884 25.358 12.7671 24.5368 11.9468C23.9696 11.3796 23.2702 11.1068 22.4592 11.1555C21.9614 11.1855 21.4589 11.1902 20.9657 11.2549C19.7788 11.4115 18.6332 11.7021 17.7078 12.5243C17.5728 12.6443 17.4557 12.8506 17.4416 13.0268C17.3525 14.0993 16.9888 15.0181 16.1375 15.7278C15.9359 15.8956 15.7428 16.1853 15.7194 16.4347C15.6275 17.4238 15.4128 18.4748 15.8591 19.3888C16.6325 20.9733 17.3778 22.5858 19.1226 23.4605C20.3592 24.0802 20.8401 25.2587 20.7857 26.634C20.7304 28.0384 20.6648 29.4419 20.6039 30.8453H20.602ZM9.27391 11.1649C9.29829 11.239 9.3236 11.313 9.34797 11.3871C9.94049 11.328 10.5321 11.2577 11.1265 11.2118C11.6665 11.1705 12.2093 11.133 12.7512 11.1349C13.1187 11.1358 13.4853 11.208 13.8612 11.2493C13.7543 10.369 13.7299 10.3718 12.9809 10.2105C12.6734 10.1439 12.3621 9.99019 12.1108 9.798C11.8633 9.60862 11.6908 9.32174 11.3918 8.96642C10.6736 9.71175 9.97424 10.4383 9.27391 11.1649Z" fill="white"/>
</g>
<defs>
<clipPath id="clip0_252_9882">
<rect width="42" height="42" fill="white" transform="translate(3 3)"/>
</clipPath>
</defs>
</svg>
