<svg width="48" height="48" viewBox="0 0 48 48" fill="none" xmlns="http://www.w3.org/2000/svg">
<circle cx="24" cy="24" r="24" fill="#F0B4F5"/>
<g clip-path="url(#clip0_252_9881)">
<path d="M45 24.0431C45 35.5983 35.5626 45.0272 24.0094 45.016C12.3802 45.0056 2.98876 35.5973 3.00001 23.9691C3.01126 12.3821 12.4383 2.98502 24.0347 3.00002C35.6264 3.01502 45 12.4243 45 24.0431ZM29.411 20.4855C29.4513 20.4602 29.4916 20.4339 29.532 20.4086C29.532 19.9914 29.5788 19.5668 29.5188 19.158C29.457 18.7334 29.2976 18.3209 29.1729 17.9065C28.8429 16.8135 29.5216 15.9201 30.6691 15.9482C31.8503 15.9773 32.9331 16.2819 33.9174 16.9756C34.3655 17.2906 34.8942 17.5456 35.4239 17.6787C36.6998 17.9984 37.1788 18.6396 37.0307 19.9193C36.9051 21.0002 36.8357 22.0885 36.741 23.1732C36.7298 23.2979 36.7185 23.4216 36.7063 23.5463C36.6051 24.5691 36.082 25.394 35.4708 26.1777C35.0386 26.7318 34.6983 27.3514 34.7048 28.0536C34.7198 29.5038 34.1639 30.7085 33.3352 31.8522C32.6143 32.8468 31.7115 33.5133 30.5069 33.774C29.2282 34.0514 27.9523 34.3439 26.6755 34.6299C26.338 34.7049 26.0062 34.838 25.9884 35.2233C25.9677 35.6554 25.7671 36.2442 26.2668 36.4579C26.8039 36.6876 27.463 36.8704 28.018 36.7757C29.6032 36.5076 30.5725 37.0232 31.0431 38.5737C31.1622 38.9647 31.2953 39.3518 31.4378 39.7924C31.6103 39.6574 31.705 39.5806 31.8025 39.5075C32.7868 38.7669 33.7411 37.9794 34.7648 37.2988C36.0838 36.4223 37.505 35.7248 39.109 35.5617C39.5974 35.512 39.8881 35.3423 40.1515 34.9411C42.9854 30.6316 44.0419 25.9349 43.2245 20.8389C42.5392 16.5669 40.6061 12.924 37.4863 9.93815C34.1302 6.72641 30.1207 4.93681 25.4774 4.56745C22.8901 4.36121 20.373 4.67994 17.914 5.48803C17.7265 5.5499 17.5606 5.74865 17.4378 5.92208C16.9616 6.59236 16.5097 7.27858 16.0429 7.95542C15.9107 8.14666 15.7251 8.30603 15.6191 8.50946C15.2779 9.16193 14.9629 9.82846 14.6461 10.4725C14.6995 10.4444 14.8045 10.3956 14.9029 10.3356C15.9276 9.70847 17.0291 9.95783 17.6825 10.9722C17.8259 11.1953 17.9693 11.4212 18.0781 11.6621C18.2496 12.0437 18.5365 12.2293 18.9405 12.2855C20.1836 12.4571 21.3142 12.8761 22.2845 13.7142C22.486 13.8886 22.8572 13.9439 23.1432 13.928C24.0309 13.8802 24.9131 13.7536 25.8009 13.6936C26.6361 13.6374 27.2277 14.0423 27.6233 14.7642C28.0508 15.5451 28.0789 16.3072 27.5333 17.0469C27.3299 17.3234 27.118 17.5944 26.9155 17.8719C26.5752 18.3368 26.6511 18.6049 27.1883 18.8459C27.4442 18.9612 27.702 19.0709 27.9598 19.1824C28.5786 19.4515 29.2957 19.5977 29.4101 20.4846L29.411 20.4855ZM30.1572 39.694C29.9116 39.2993 29.7026 38.8719 29.4035 38.5231C29.247 38.3403 28.8814 38.1463 28.6957 38.2091C27.8164 38.5081 26.9896 38.2466 26.1627 38.0563C25.2628 37.8491 24.6984 37.251 24.5091 36.3417C24.4491 36.0557 24.4678 35.7511 24.4687 35.4558C24.4716 34.2746 25.0996 33.4674 26.2433 33.1974C27.4564 32.9115 28.6732 32.6434 29.8891 32.3678C31.6881 31.959 33.1477 30.1844 33.1815 28.3311C33.2012 27.2652 33.5227 26.3109 34.1396 25.4493C34.358 25.1447 34.5867 24.8475 34.7902 24.5325C35.1436 23.9869 35.2964 23.3925 35.212 22.697C34.9833 22.8123 34.8052 22.906 34.6252 22.9941C34.1611 23.2201 33.7355 23.1197 33.533 22.7391C33.323 22.3445 33.4618 21.9282 33.9071 21.6761C34.2867 21.4614 34.6814 21.272 35.0601 21.0545C35.1708 20.9908 35.3076 20.8848 35.3329 20.7752C35.4276 20.3655 35.4989 19.9483 35.5373 19.5302C35.5467 19.4299 35.4098 19.233 35.3179 19.219C34.313 19.0624 33.4862 18.5431 32.6724 17.9815C32.0743 17.5691 31.3891 17.4791 30.6335 17.48C30.7347 17.7744 30.8735 18.0172 30.8931 18.2703C30.9353 18.8046 31.1078 19.4505 30.881 19.8583C30.4432 20.6449 30.461 21.2795 30.9006 22.0201C31.1106 22.3735 30.8875 22.801 30.5397 22.9651C30.161 23.1432 29.7579 23.0129 29.547 22.6154C29.3716 22.2854 29.2554 21.9217 29.0595 21.6058C28.932 21.3995 28.7389 21.1923 28.5251 21.0873C27.8398 20.7517 27.1255 20.4761 26.4337 20.1546C25.1803 19.5733 24.8315 18.1812 25.6481 17.06C25.859 16.7694 26.1196 16.506 26.278 16.1901C26.3708 16.0044 26.383 15.7045 26.294 15.5235C26.2162 15.3642 25.9462 15.2104 25.7606 15.2104C25.2637 15.2104 24.7603 15.2592 24.2719 15.351C22.9435 15.6013 21.7257 15.4682 20.717 14.4604C20.2905 14.0348 19.7149 13.9645 19.1665 13.8848C17.9937 13.7142 17.0844 13.2342 16.58 12.084C16.295 11.4343 15.3266 11.2168 14.7557 11.6612C14.1164 12.159 13.5127 12.7093 12.9418 13.2849C12.4805 13.7489 12.7158 14.6161 13.3017 14.7801C14.7454 15.1842 15.1785 15.7663 15.2929 17.2588C15.3641 18.1887 15.3998 19.159 15.6998 20.0252C16.4 22.0445 16.3897 24.0019 15.7513 26.0306C15.2104 27.7499 15.7007 29.3951 16.8978 30.6213C18.5534 32.3181 19.9699 34.1949 21.4707 36.0107C21.8307 36.4457 22.0745 36.9229 22.1017 37.49C22.1204 37.881 22.3238 38.105 22.6876 38.1688C23.821 38.3666 24.9506 38.6187 26.0924 38.72C27.5005 38.8456 28.9498 38.7219 30.1601 39.6959L30.1572 39.694ZM31.0056 41.223C30.7563 41.148 30.5313 41.0889 30.3138 41.013C28.8139 40.4918 27.2764 40.2715 25.6846 40.1965C24.4687 40.1393 23.251 39.8431 22.066 39.5318C21.1792 39.2993 20.6945 38.6112 20.6045 37.6682C20.5849 37.4619 20.5089 37.2276 20.3805 37.0701C18.8984 35.2598 17.5803 33.308 15.8254 31.7303C15.6529 31.5747 15.4898 31.3966 15.3679 31.1997C14.1651 29.2563 13.6373 27.2174 14.4567 24.9684C14.8335 23.9335 14.9357 22.8394 14.6095 21.7904C14.1183 20.2136 13.8192 18.6181 13.7508 16.9728C13.733 16.5566 13.4986 16.3241 13.0861 16.2538C12.1665 16.0963 11.5431 15.5779 11.3331 14.6629C11.109 13.6852 11.2018 12.7533 12.0334 12.0549C12.4355 11.7174 12.8808 11.4325 13.1939 11.2056C12.8864 11.0387 12.4458 10.8222 12.0287 10.5681C11.5937 10.3028 11.1803 10.0019 10.7556 9.71597C10.6609 9.79753 10.599 9.8444 10.5447 9.89784C6.00175 14.3808 4.01059 19.8124 4.6265 26.1524C4.98461 29.8394 6.39642 33.1374 8.67538 36.066C13.6486 42.4548 22.3585 45.1097 30.0354 42.5626C30.6647 42.3539 30.9878 41.9073 31.0047 41.223H31.0056ZM39.0828 36.5891C38.4734 36.9313 37.8744 37.2922 37.2529 37.61C35.6761 38.4163 34.2221 39.3968 32.8806 40.5546C32.5628 40.8293 32.4653 41.1068 32.5562 41.508C35.1239 40.383 37.0841 38.4481 39.0828 36.5891ZM16.1404 5.98301C16.1019 5.94926 16.0626 5.91551 16.0241 5.88176C14.6686 6.79579 13.3139 7.70981 11.8956 8.66602C12.5115 9.08318 13.0289 9.43286 13.6561 9.85752C13.7555 8.02573 14.9189 6.98515 16.1404 5.98301Z" fill="white"/>
<path d="M25.3789 9.52248C25.5158 8.64314 25.8017 7.92224 26.4289 7.35883C26.9229 6.91541 27.4535 6.62292 28.166 6.8376C29.4747 7.23133 30.8002 7.56882 32.1052 7.97286C32.6798 8.15098 33.1523 8.52784 33.4748 9.05375C34.101 10.0756 34.7432 11.088 35.3291 12.1324C35.7219 12.8326 35.6647 13.5601 35.136 14.1845C34.6082 14.8079 33.9173 14.9476 33.1411 14.7216C32.3573 14.4929 31.6983 14.072 31.1565 13.4617C30.8874 13.1589 30.6118 12.8608 30.3277 12.5711C29.5759 11.8052 28.7097 11.328 27.5857 11.4058C26.9201 11.4518 26.292 11.2596 25.8992 10.6831C25.6648 10.3381 25.5486 9.91153 25.3789 9.52248ZM27.9007 8.20723C27.4629 8.29722 27.2707 8.58127 27.1432 8.87563C26.8395 9.57685 26.9154 9.9134 27.7385 9.93309C28.3647 9.94809 29.0228 10.0334 29.6022 10.2565C30.6568 10.6624 31.4021 11.5071 32.1708 12.3105C32.5252 12.6808 32.9958 12.948 33.4392 13.2208C33.5676 13.2995 33.7842 13.2358 33.9595 13.2376C33.9501 13.0511 34.0045 12.8261 33.921 12.6827C33.3632 11.7302 32.7839 10.7909 32.1895 9.8609C32.0789 9.68747 31.8896 9.51498 31.6993 9.44936C30.4384 9.01907 29.1681 8.61783 27.9007 8.20723Z" fill="white"/>
<path d="M21.5418 12.3257C21.4462 12.381 21.3581 12.441 21.2634 12.4851C20.8988 12.6566 20.5856 12.5648 20.3503 12.2582C20.1094 11.9451 20.1357 11.6179 20.3897 11.318C20.8106 10.8192 21.6253 10.5896 22.1699 10.9777C22.7737 11.407 23.3802 11.378 23.9989 11.2308C25.9085 10.7789 27.3869 11.4473 28.599 12.8948C28.9853 13.356 29.4746 13.6288 30.0802 13.7047C30.6455 13.776 30.908 14.0816 30.8602 14.5597C30.8142 15.0181 30.4786 15.2553 29.8984 15.1925C28.8887 15.0837 28.0572 14.6216 27.4253 13.8303C26.8947 13.1666 26.2366 12.6838 25.3948 12.6135C24.8333 12.5667 24.252 12.7101 23.6839 12.7916C22.9133 12.9023 22.1887 12.831 21.5418 12.3257Z" fill="white"/>
</g>
<defs>
<clipPath id="clip0_252_9881">
<rect width="42" height="42.0169" fill="white" transform="translate(3 3)"/>
</clipPath>
</defs>
</svg>
