<svg width="48" height="48" viewBox="0 0 48 48" fill="none" xmlns="http://www.w3.org/2000/svg">
<circle cx="24" cy="24" r="24" fill="#B4F5B4"/>
<g clip-path="url(#clip0_252_9879)">
<path d="M23.993 44.9944C12.3671 44.9775 2.98315 35.5664 3.00002 23.9424C3.01689 12.3634 12.4524 2.97848 24.0539 3.00004C35.6601 3.02159 45.0263 12.4552 45.001 24.097C44.9757 35.617 35.5308 45.0122 23.9939 44.9944H23.993ZM37.3266 22.0285C37.0145 22.1316 36.7727 22.1944 36.5449 22.29C35.5495 22.708 34.6582 22.4952 33.9168 21.7717C33.3619 21.2299 32.8408 20.6376 32.3975 20.0021C31.0984 18.1398 30.1958 16.0609 29.2211 14.0214C29.058 13.6802 28.7534 13.3297 28.4225 13.1582C26.9669 12.4046 25.4064 12.0887 23.7624 12.2331C22.8458 12.3137 21.9291 12.4224 21.0106 12.459C20.1268 12.4936 19.4566 11.9407 19.3376 11.0831C19.2888 10.7306 19.1689 10.6866 18.8633 10.7185C15.6222 11.0587 12.9904 12.5077 10.9724 15.0608C9.85428 16.4761 8.97606 18.0085 8.87952 19.87C8.80266 21.3499 9.29754 22.5965 10.4569 23.5459C10.8525 23.8693 11.3024 23.9246 11.8188 23.8665C13.1328 23.7193 14.4535 23.5665 15.7741 23.5497C17.1116 23.5328 18.1585 24.1055 18.7883 25.3802C19.675 27.176 20.3564 29.0411 20.915 30.9597C21.2609 32.1473 21.4014 33.2832 20.7022 34.4239C20.5082 34.7407 20.452 35.2862 20.5832 35.632C21.1896 37.2291 22.0069 38.7147 23.2216 39.9519C23.65 40.3887 24.157 40.458 24.7269 40.3812C26.0044 40.2087 27.1244 39.6913 28.0636 38.8206C30.089 36.9414 31.3862 34.6029 32.0348 31.9514C32.4893 30.0937 33.2532 28.4788 34.5851 27.0991C35.2758 26.384 35.8673 25.5686 36.4596 24.7663C37.0389 23.9818 37.2713 23.066 37.3238 22.0294L37.3266 22.0285ZM40.0053 15.7657C40.3708 17.3309 39.98 18.4584 38.8581 19.3479C38.2386 19.839 37.5759 20.2214 36.813 20.4436C36.2534 20.6067 35.7089 20.8232 35.1578 21.0153C36.0107 20.9497 36.8373 20.8007 37.6631 20.6488C38.2667 20.5373 38.6622 20.7847 38.8037 21.3846C38.8459 21.5655 38.8731 21.7576 38.8609 21.9413C38.7737 23.2507 38.5132 24.5216 37.7118 25.5939C36.9461 26.6174 36.1372 27.6127 35.3002 28.5781C34.5392 29.4554 33.9599 30.3936 33.7172 31.5512C33.2467 33.7912 32.3056 35.8392 31.0113 37.7203C29.7525 39.5498 28.2023 41.0213 25.995 41.6484C23.8599 42.2548 22.6846 41.908 21.3864 40.1244C20.7107 39.1965 20.1736 38.1664 19.5906 37.1729C18.823 35.8645 18.809 34.5514 19.5635 33.2186C19.6881 32.9983 19.7331 32.674 19.6853 32.4228C19.271 30.2502 18.4565 28.2163 17.539 26.2134C17.1415 25.3446 16.4855 24.9931 15.6091 25.0381C14.4122 25.099 13.2144 25.1983 12.0269 25.3539C11.1758 25.4655 10.4101 25.3408 9.71087 24.859C8.6377 24.1195 7.96005 23.0792 7.60577 21.8504C7.08183 20.0368 7.40425 18.2878 8.21687 16.6289C9.45875 14.0936 11.2967 12.1 13.7786 10.726C13.9651 10.6229 14.101 10.5526 14.0439 10.2733C13.7046 8.62178 14.5359 7.4352 16.1987 7.11653C16.6364 7.03217 17.0975 6.93282 17.4762 6.71631C18.0282 6.40045 18.5203 5.97962 19.0264 5.5869C19.1829 5.46599 19.2991 5.29447 19.4341 5.14638C17.6421 5.4763 15.999 6.09678 14.4778 6.99562C8.5571 10.4907 5.19886 15.6447 4.58026 22.5149C4.23066 26.3999 5.06858 30.0553 6.95624 33.4576C10.8918 40.5518 18.9186 44.6064 27.2041 43.2202C31.4199 42.5144 35.0284 40.6239 37.9921 37.5553C41.2547 34.1774 43.0702 30.1284 43.4329 25.4345C43.6822 22.2122 43.1405 19.1267 41.8442 16.1743C41.7674 15.999 41.5302 15.8088 41.3456 15.7835C40.9266 15.7253 40.4946 15.7647 40.0053 15.7647V15.7657ZM20.8606 10.9875C21.4596 10.9387 22.0369 10.9256 22.6021 10.8394C24.8909 10.4898 27.0757 10.7822 29.1592 11.8122C29.2679 11.8657 29.5248 11.8019 29.596 11.7054C29.7 11.5648 29.7881 11.2921 29.7178 11.1749C29.6279 11.0259 29.3767 10.9031 29.1892 10.8956C28.3729 10.8637 27.6165 10.6472 26.9351 10.2095C26.2659 9.78025 25.561 9.66121 24.7878 9.8018C23.1551 10.098 21.7417 9.61341 20.4998 8.55524C20.1193 8.23094 20.0574 7.83448 20.3198 7.48394C20.571 7.14933 21.0069 7.10153 21.4033 7.3649C21.4811 7.41645 21.5608 7.468 21.6311 7.52893C22.5074 8.28718 23.5281 8.49525 24.6463 8.30592C25.741 8.12034 26.7345 8.34248 27.699 8.89828C28.1413 9.15321 28.6803 9.30505 29.1911 9.35941C30.0459 9.45033 30.7451 9.72026 31.1153 10.5404C31.4958 11.383 31.2587 12.129 30.6729 12.7814C30.5023 12.9717 30.4583 13.1151 30.5736 13.3503C31.0534 14.3298 31.4743 15.3411 31.9935 16.299C32.6093 17.4349 33.2982 18.5325 33.9759 19.6338C34.0518 19.7575 34.2898 19.8981 34.4023 19.8643C35.751 19.4557 37.0548 18.9439 38.127 17.9832C38.6041 17.5558 38.7475 17.0328 38.5891 16.3964C36.8805 16.2343 35.9647 15.043 35.1465 13.7271C34.9525 13.415 34.9112 13.0616 35.1831 12.8273C35.3771 12.6595 35.7173 12.5602 35.9704 12.5949C36.1663 12.6211 36.3415 12.8882 36.5018 13.0701C36.932 13.5593 37.3088 14.1067 37.7905 14.535C38.0192 14.7384 38.4691 14.8499 38.77 14.7825C39.4514 14.6297 40.1018 14.341 40.7954 14.0964C38.8262 10.7784 36.0772 8.19907 32.5484 6.47637C28.9015 4.69556 25.0559 4.1332 21.0284 4.72836C20.9722 5.52785 20.6976 6.19988 20.0799 6.67132C18.9196 7.55517 17.8229 8.54493 16.239 8.65646C15.611 8.70051 15.3561 9.26944 15.5369 9.90584C16.0309 9.76713 16.5192 9.60498 17.0197 9.49719C17.5371 9.38566 18.0648 9.31817 18.5896 9.24788C19.9524 9.06605 20.6254 9.56186 20.8606 10.9856V10.9875Z" fill="white"/>
</g>
<defs>
<clipPath id="clip0_252_9879">
<rect width="42" height="41.9944" fill="white" transform="translate(3 3)"/>
</clipPath>
</defs>
</svg>
