<svg width="48" height="48" viewBox="0 0 48 48" fill="none" xmlns="http://www.w3.org/2000/svg">
<circle cx="24" cy="24" r="24" fill="#0052B4"/>
<path d="M23.75 17.5C23.1977 17.5 22.75 17.0523 22.75 16.5V14C22.75 13.4477 23.1977 13 23.75 13H24.25C24.8023 13 25.25 13.4477 25.25 14V16.5C25.25 17.0523 24.8023 17.5 24.25 17.5H23.75Z" fill="#F2DC82"/>
<path d="M28.4194 19.227C28.0289 18.8365 28.0289 18.2033 28.4194 17.8128L30.1872 16.045C30.5777 15.6545 31.2109 15.6545 31.6014 16.045L31.9549 16.3986C32.3455 16.7891 32.3455 17.4222 31.9549 17.8128L30.1872 19.5805C29.7967 19.9711 29.1635 19.9711 28.773 19.5805L28.4194 19.227Z" fill="#F2DC82"/>
<path d="M30.5 23.75C30.5 23.1977 30.9477 22.75 31.5 22.75H34C34.5523 22.75 35 23.1977 35 23.75V24.25C35 24.8023 34.5523 25.25 34 25.25H31.5C30.9477 25.25 30.5 24.8023 30.5 24.25V23.75Z" fill="#F2DC82"/>
<path d="M28.7728 28.4194C29.1633 28.0289 29.7965 28.0289 30.187 28.4194L31.9548 30.1872C32.3453 30.5777 32.3453 31.2109 31.9548 31.6014L31.6012 31.9549C31.2107 32.3455 30.5775 32.3455 30.187 31.9549L28.4192 30.1872C28.0287 29.7967 28.0287 29.1635 28.4192 28.773L28.7728 28.4194Z" fill="#F2DC82"/>
<path d="M24.25 30.5C24.8023 30.5 25.25 30.9477 25.25 31.5V34C25.25 34.5523 24.8023 35 24.25 35H23.75C23.1977 35 22.75 34.5523 22.75 34V31.5C22.75 30.9477 23.1977 30.5 23.75 30.5H24.25Z" fill="#F2DC82"/>
<path d="M19.5806 28.773C19.9711 29.1635 19.9711 29.7967 19.5806 30.1872L17.8128 31.955C17.4223 32.3455 16.7891 32.3455 16.3986 31.955L16.0451 31.6014C15.6545 31.2109 15.6545 30.5778 16.0451 30.1872L17.8128 28.4195C18.2033 28.0289 18.8365 28.0289 19.227 28.4195L19.5806 28.773Z" fill="#F2DC82"/>
<path d="M17.5 24.25C17.5 24.8023 17.0523 25.25 16.5 25.25H14C13.4477 25.25 13 24.8023 13 24.25V23.75C13 23.1977 13.4477 22.75 14 22.75H16.5C17.0523 22.75 17.5 23.1977 17.5 23.75V24.25Z" fill="#F2DC82"/>
<path d="M19.2272 19.5806C18.8367 19.9711 18.2035 19.9711 17.813 19.5806L16.0452 17.8128C15.6547 17.4223 15.6547 16.7891 16.0452 16.3986L16.3988 16.0451C16.7893 15.6545 17.4225 15.6545 17.813 16.0451L19.5808 17.8128C19.9713 18.2033 19.9713 18.8365 19.5808 19.227L19.2272 19.5806Z" fill="#F2DC82"/>
<path d="M19 24C19 21.2386 21.2386 19 24 19C26.7614 19 29 21.2386 29 24C29 26.7614 26.7614 29 24 29C21.2386 29 19 26.7614 19 24Z" fill="#F2DC82"/>
</svg>
